PathFileType	4	(X/Y/Z)	/Users/itak/Documents/Research/Walk-IL/dataset/trc/00191_00008.trc
DataRate	CameraRate	NumFrames	NumMarkers	Units	OrigDataRate	OrigDataStartFrame	OrigNumFrames
100.000000	100.000000	4	53	mm	100.000000	198	795
Frame#	Time	RPSI			LPSI			L3			STRN			T10			C7			CLAV			RBAK			LBAK			LSHO			LUPA			LAEL			LAOL			LWTS			LWPS			LFRA			LIFD			LHPS			LHTS			RSHO			RUPA			RAEL			RAOL			RWTS			RWPS			RFRA			RIFD			RHTS			RHPS			RBHD			LFHD			RFHD			LBHD			LHIP			RHIP			RASI			LASI			LKNE			LTHI			LANK			LTIP			LTOE			LMT1			LMT5			LHEE			RKNE			RTHI			RANK			RTIP			RTOE			RMT1			RMT5			RHEE			
		X1	Y1	Z1	X2	Y2	Z2	X3	Y3	Z3	X4	Y4	Z4	X5	Y5	Z5	X6	Y6	Z6	X7	Y7	Z7	X8	Y8	Z8	X9	Y9	Z9	X10	Y10	Z10	X11	Y11	Z11	X12	Y12	Z12	X13	Y13	Z13	X14	Y14	Z14	X15	Y15	Z15	X16	Y16	Z16	X17	Y17	Z17	X18	Y18	Z18	X19	Y19	Z19	X20	Y20	Z20	X21	Y21	Z21	X22	Y22	Z22	X23	Y23	Z23	X24	Y24	Z24	X25	Y25	Z25	X26	Y26	Z26	X27	Y27	Z27	X28	Y28	Z28	X29	Y29	Z29	X30	Y30	Z30	X31	Y31	Z31	X32	Y32	Z32	X33	Y33	Z33	X34	Y34	Z34	X35	Y35	Z35	X36	Y36	Z36	X37	Y37	Z37	X38	Y38	Z38	X39	Y39	Z39	X40	Y40	Z40	X41	Y41	Z41	X42	Y42	Z42	X43	Y43	Z43	X44	Y44	Z44	X45	Y45	Z45	X46	Y46	Z46	X47	Y47	Z47	X48	Y48	Z48	X49	Y49	Z49	X50	Y50	Z50	X51	Y51	Z51	X52	Y52	Z52	X53	Y53	Z53	

199	1.98	-497.1679992675781	1032.445434570312	524.4646606445312	-607.5867309570312	1033.716430664062	575.4625244140625	-546.7127075195312	1066.589599609375	546.9154663085938	-675.0994262695312	1271.81396484375	317.32080078125	-528.3219604492188	1226.460083007812	577.4464111328125	-573.1571655273438	1494.588500976562	520.153564453125	-671.5765991210938	1385.097778320312	346.8706970214844	-443.8652954101562	1321.177734375	529.1866455078125	-653.7347412109375	1470.417602539062	578.7218017578125	-758.6558837890625	1454.9833984375	557.1497802734375	-790.1497802734375	1326.82421875	638.7265014648438	-793.2789306640625	1115.195068359375	667.7631225585938	-706.8143920898438	1100.892700195312	649.3980712890625	-830.9906005859375	863.2592163085938	620.668212890625	-797.9535522460938	866.4312744140625	709.4400634765625	-803.1311645507812	1007.594665527344	689.9329223632812	-791.2819213867188	694.2249755859375	631.2503662109375	-801.8394775390625	793.986083984375	709.4727783203125	-841.58203125	785.3605346679688	648.95849609375	-448.889404296875	1470.456176757812	374.9754028320312	-378.2808837890625	1405.101928710938	359.7929077148438	-319.5644226074219	1115.693725585938	353.8902587890625	-399.4665222167969	1108.558227539062	409.1451110839844	-414.1715698242188	890.8507690429688	242.0331573486328	-335.5514831542969	871.99560546875	282.5088500976562	-318.0714721679688	1042.879028320312	322.7557373046875	-445.5003967285156	703.3710327148438	242.4530181884766	-422.5351257324219	797.015625	215.8522491455078	-354.0765686035156	789.7257690429688	260.202880859375	-542.9126586914062	1642.367553710938	447.9361877441406	-707.9481201171875	1707.310913085938	319.9244384765625	-583.8330078125	1695.428833007812	285.9013366699219	-671.4527587890625	1661.433837890625	493.067138671875	-765.5559692382812	978.2791137695312	527.791748046875	-446.6657409667969	973.5492553710938	332.1884155273438	-528.4006958007812	1005.703063964844	279.9396667480469	-758.0425415039062	1013.5322265625	391.6469116210938	-837.8535766601562	515.274169921875	318.0307312011719	-834.2098388671875	644.3705444335938	386.1209716796875	-906.2846069335938	30.39119720458984	315.1363525390625	-882.42724609375	286.6159057617188	313.013671875	-881.2324829101562	79.93373107910156	108.0995483398438	-833.9658813476562	67.153564453125	151.5086212158203	-941.7039184570312	36.99437713623047	207.7913208007812	-837.3391723632812	31.44410514831543	365.8445739746094	-479.5657348632812	478.891357421875	440.6832580566406	-468.1667785644531	734.0097045898438	328.1483459472656	-358.3404541015625	83.82170104980469	731.3109130859375	-487.0748596191406	359.5281677246094	496.7406311035156	-538.9862060546875	42.22800064086914	621.6314086914062	-528.5707397460938	52.63430786132812	681.7371826171875	-411.2082824707031	38.52555084228516	637.3336791992188	-371.1527099609375	122.5082778930664	807.1774291992188	
200	1.99	-504.2505798339844	1033.601318359375	516.8380126953125	-615.551025390625	1035.456420898438	566.4537963867188	-554.193603515625	1068.195556640625	538.7239379882812	-680.064453125	1273.63818359375	308.2149047851562	-536.7185668945312	1227.80126953125	570.154541015625	-581.0830688476562	1496.018432617188	512.9562377929688	-677.0036010742188	1386.89306640625	338.0618896484375	-451.7306823730469	1322.685668945312	523.41064453125	-662.4003295898438	1471.744873046875	570.216552734375	-766.9998168945312	1456.458129882812	547.2102661132812	-799.4077758789062	1328.360107421875	628.478271484375	-801.9393920898438	1116.75634765625	657.6907958984375	-715.3045043945312	1102.810791015625	640.2387084960938	-837.8287963867188	864.425537109375	611.0216674804688	-805.8999633789062	868.1343994140625	700.1633911132812	-811.5603637695312	1009.21826171875	680.0286254882812	-796.6923217773438	695.7323608398438	622.8226928710938	-809.2177734375	795.6361083984375	700.4197998046875	-848.1768188476562	786.4746704101562	639.4114990234375	-454.7911987304688	1472.33447265625	369.6013793945312	-383.8622436523438	1407.221435546875	355.5273742675781	-323.6972961425781	1118.496337890625	351.1537475585938	-404.7935485839844	1110.776611328125	404.4547119140625	-413.3137512207031	892.2066040039062	238.0256958007812	-335.378662109375	874.4627685546875	280.3487548828125	-320.8820190429688	1045.668823242188	320.1743469238281	-442.2380676269531	704.2733764648438	238.5099792480469	-419.8835754394531	798.1334228515625	212.0504455566406	-352.4344482421875	791.8641357421875	257.9449157714844	-549.6483764648438	1643.809448242188	441.4950561523438	-712.3221435546875	1709.00244140625	310.583251953125	-587.6964721679688	1696.982421875	278.7763977050781	-678.9028930664062	1663.116943359375	484.3096923828125	-772.6765747070312	980.8504028320312	516.6674194335938	-451.2623596191406	974.3765869140625	325.4219665527344	-532.3865356445312	1007.070190429688	272.5753784179688	-763.6356201171875	1015.733032226562	380.5556945800781	-842.4352416992188	515.8424072265625	309.4183044433594	-839.7150268554688	646.5916137695312	375.4487915039062	-907.1962890625	29.79480934143066	314.6614379882812	-885.65576171875	286.6050109863281	307.7191772460938	-882.4337768554688	76.22273254394531	106.7857360839844	-835.1875610351562	64.79600524902344	150.3628082275391	-942.8718872070312	34.55399322509766	207.1694946289062	-837.9290771484375	32.7243766784668	365.3603820800781	-484.6748352050781	478.2530822753906	429.6104431152344	-472.8409423828125	734.7510986328125	320.1258850097656	-361.71435546875	90.00196075439453	730.4349365234375	-490.3131408691406	359.2009887695312	486.9886474609375	-537.2301635742188	42.2929801940918	618.9573364257812	-529.7050170898438	53.89946365356445	678.5995483398438	-411.0987243652344	39.35976028442383	637.6505126953125	-377.7102966308594	131.2262420654297	804.136474609375	
201	2	-511.2173461914062	1034.819213867188	509.4784545898438	-623.442626953125	1037.211181640625	557.5401000976562	-561.5989990234375	1069.793334960938	530.6968383789062	-684.829833984375	1275.512573242188	299.1056213378906	-544.9717407226562	1229.21044921875	562.8335571289062	-588.9070434570312	1497.511352539062	505.7015075683594	-682.256103515625	1388.755981445312	329.224609375	-459.46484375	1324.304443359375	517.595458984375	-670.8809814453125	1473.132568359375	561.6343383789062	-775.1663818359375	1458.055053710938	537.1669921875	-808.6103515625	1330.05322265625	618.0997924804688	-810.678955078125	1118.444213867188	647.423095703125	-723.8910522460938	1104.833740234375	630.9720458984375	-844.8942260742188	865.7803955078125	600.90380859375	-814.2329711914062	869.9080200195312	690.4430541992188	-820.18115234375	1010.934997558594	669.8341064453125	-802.4412231445312	697.4124755859375	613.8076171875	-817.0078125	797.3631591796875	690.8522338867188	-855.0621337890625	787.7387084960938	629.2915649414062	-460.6064453125	1474.306640625	364.212646484375	-389.3652954101562	1409.459838867188	351.2310180664062	-327.8450622558594	1121.398071289062	348.4540100097656	-410.1578369140625	1113.114013671875	399.7145690917969	-412.47802734375	893.7964477539062	234.0218658447266	-335.3419189453125	877.0924072265625	278.2413024902344	-323.7437438964844	1048.568603515625	317.6383666992188	-439.1867065429688	705.4533081054688	234.5390014648438	-417.3558959960938	799.513671875	208.2397003173828	-350.9908752441406	794.188232421875	255.7406768798828	-556.2946166992188	1645.299682617188	434.9964904785156	-716.5860595703125	1710.719116210938	301.2638244628906	-591.4701538085938	1698.579223632812	271.6562194824219	-686.2015380859375	1664.864013671875	475.4223022460938	-779.6561279296875	983.39453125	505.5989990234375	-455.5790100097656	975.3385009765625	319.1488647460938	-536.105224609375	1008.523376464844	265.4794311523438	-768.9847412109375	1017.944946289062	369.5350341796875	-846.7999267578125	516.2274780273438	301.689697265625	-845.0970458984375	648.4935302734375	365.7046813964844	-907.9889526367188	29.25273513793945	314.3839721679688	-888.6857299804688	286.4950866699219	303.1670532226562	-883.6849365234375	73.08855438232422	105.8200836181641	-836.436279296875	62.90291213989258	149.487060546875	-944.0839233398438	32.58234786987305	206.8289031982422	-838.3222045898438	33.81765747070312	364.9410095214844	-489.7497863769531	477.4334106445312	417.7955322265625	-477.3555908203125	735.58447265625	312.0302124023438	-365.8480529785156	96.86257171630859	729.36083984375	-493.5727233886719	358.8437194824219	476.4908752441406	-535.0138549804688	42.31932830810547	615.499755859375	-530.9232177734375	55.08106231689453	674.5882568359375	-410.9544677734375	40.78500747680664	637.9088745117188	-385.6029663085938	140.3114471435547	800.5564575195312	
202	2.01	-518.0943603515625	1036.08056640625	502.4421997070312	-631.2913208007812	1038.984497070312	548.7537231445312	-568.9468994140625	1071.386108398438	522.880859375	-689.3515014648438	1277.380981445312	289.9896545410156	-553.094970703125	1230.67041015625	555.5222778320312	-596.6123046875	1499.040405273438	498.3880615234375	-687.2967529296875	1390.626342773438	320.3482360839844	-467.0657653808594	1326.003295898438	511.7866516113281	-679.18408203125	1474.553344726562	552.9708862304688	-783.1605834960938	1459.71240234375	526.994384765625	-817.7501831054688	1331.838745117188	607.5632934570312	-819.5036010742188	1120.195434570312	636.9633178710938	-732.564208984375	1106.8916015625	621.6279907226562	-852.188720703125	867.2652587890625	590.3239135742188	-822.9427490234375	871.6886596679688	680.2831420898438	-828.9960327148438	1012.679870605469	659.3583984375	-808.5752563476562	699.185791015625	604.20947265625	-825.213134765625	799.103759765625	680.7698364257812	-862.2533569335938	789.1005859375	618.6074829101562	-466.2987060546875	1476.325805664062	358.8179321289062	-394.7545776367188	1411.755859375	346.9295959472656	-331.9704895019531	1124.327026367188	345.765380859375	-415.4888610839844	1115.501831054688	394.94482421875	-411.6942138671875	895.5719604492188	230.0115661621094	-335.4667358398438	879.8153076171875	276.1525573730469	-326.6361389160156	1051.508666992188	315.1266479492188	-436.4169311523438	706.8654174804688	230.5179748535156	-415.0143432617188	801.1084594726562	204.4029693603516	-349.7816162109375	796.6338500976562	253.5571441650391	-562.83642578125	1646.805786132812	428.4431457519531	-720.731201171875	1712.443359375	291.9821166992188	-595.1487426757812	1700.201293945312	264.5491027832031	-693.3429565429688	1666.634399414062	466.4264831542969	-786.5086669921875	985.8692626953125	494.6152648925781	-459.6685791015625	976.3806762695312	313.3960876464844	-539.5337524414062	1009.999328613281	258.6750793457031	-774.069091796875	1020.0751953125	358.6128845214844	-850.8472290039062	516.4270629882812	294.8184204101562	-850.22216796875	649.9642944335938	356.9764709472656	-908.6412963867188	28.8018970489502	314.2204284667969	-891.425537109375	286.2928466796875	299.2669677734375	-884.6995849609375	70.45540618896484	105.0869293212891	-837.47265625	61.37658309936523	148.8384552001953	-945.1646118164062	31.08686065673828	206.6311187744141	-838.6234130859375	34.68948364257812	364.6075744628906	-494.7317504882812	476.4938659667969	405.3585815429688	-481.6368103027344	736.4860229492188	303.9368591308594	-370.8276672363281	104.3594512939453	727.9403076171875	-496.8661499023438	358.5083618164062	465.3006591796875	-532.3599243164062	42.32801055908203	611.0679321289062	-532.1914672851562	56.1744384765625	669.4828491210938	-410.8363342285156	42.97869491577148	637.9236450195312	-394.8518981933594	149.5788269042969	796.3303833007812	
